<svg xmlns="http://www.w3.org/2000/svg" width="65.000000pt" height="65.000000pt" viewBox="0 0 65.000000 65.000000" preserveAspectRatio="xMidYMid meet"><g transform="translate(0.000000,65.000000) scale(0.100000,-0.100000)" fill="#000000" stroke="none"><path d="M487 602 c-18 -19 -27 -39 -27 -62 l0 -34 35 34 c24 23 35 43 35 62 0 35 -9 35 -43 0z"></path><path d="M217 529 c-77 -18 -141 -69 -180 -143 -28 -54 -30 -175 -4 -223 113 -211 385 -209 483 2 28 59 31 131 8 198 -21 63 -39 76 -63 46 -16 -21 -17 -26 -5 -45 8 -12 17 -44 21 -72 8 -69 -31 -151 -89 -189 -102 -68 -250 -27 -299 82 -79 174 108 357 276 269 26 -13 30 -13 51 7 22 21 23 23 6 34 -44 31 -148 48 -205 34z"></path><path d="M551 496 l-32 -33 27 -7 c22 -6 33 -1 61 26 30 29 31 33 16 40 -31 12 -38 9 -72 -26z"></path><path d="M301 259 c-13 -10 -32 -19 -42 -19 -10 0 -19 -4 -19 -10 0 -5 16 -10 35 -10 24 0 37 6 45 21 17 31 8 40 -19 18z"></path></g></svg>